<mxfile host="app.diagrams.net" modified="2022-01-18T02:54:22.426Z" agent="5.0 (Macintosh; Intel Mac OS X 10_15_7) AppleWebKit/537.36 (KHTML, like Gecko) Chrome/97.0.4692.71 Safari/537.36" etag="guLuOsYrCQ1kF4yaLhqY" version="16.2.7" type="github">
  <diagram id="LtjWuERuflghVWgdvEpx" name="Page-1">
    <mxGraphModel dx="1234" dy="776" grid="1" gridSize="10" guides="1" tooltips="1" connect="1" arrows="1" fold="1" page="1" pageScale="1" pageWidth="827" pageHeight="1169" math="0" shadow="0">
      <root>
        <mxCell id="0" />
        <mxCell id="1" parent="0" />
        <mxCell id="uh2voQJqc_HQXgUZuSZl-3" style="edgeStyle=orthogonalEdgeStyle;rounded=0;orthogonalLoop=1;jettySize=auto;html=1;" edge="1" parent="1" source="uh2voQJqc_HQXgUZuSZl-1" target="uh2voQJqc_HQXgUZuSZl-2">
          <mxGeometry relative="1" as="geometry" />
        </mxCell>
        <mxCell id="uh2voQJqc_HQXgUZuSZl-6" style="edgeStyle=orthogonalEdgeStyle;rounded=0;orthogonalLoop=1;jettySize=auto;html=1;" edge="1" parent="1" source="uh2voQJqc_HQXgUZuSZl-1" target="uh2voQJqc_HQXgUZuSZl-5">
          <mxGeometry relative="1" as="geometry" />
        </mxCell>
        <mxCell id="uh2voQJqc_HQXgUZuSZl-8" style="edgeStyle=orthogonalEdgeStyle;rounded=0;orthogonalLoop=1;jettySize=auto;html=1;" edge="1" parent="1" source="uh2voQJqc_HQXgUZuSZl-1" target="uh2voQJqc_HQXgUZuSZl-7">
          <mxGeometry relative="1" as="geometry" />
        </mxCell>
        <mxCell id="uh2voQJqc_HQXgUZuSZl-1" value="" style="rounded=1;whiteSpace=wrap;html=1;" vertex="1" parent="1">
          <mxGeometry x="210" y="140" width="120" height="60" as="geometry" />
        </mxCell>
        <mxCell id="uh2voQJqc_HQXgUZuSZl-2" value="" style="rounded=1;whiteSpace=wrap;html=1;" vertex="1" parent="1">
          <mxGeometry x="210" y="350" width="120" height="60" as="geometry" />
        </mxCell>
        <mxCell id="uh2voQJqc_HQXgUZuSZl-5" value="" style="rounded=1;whiteSpace=wrap;html=1;" vertex="1" parent="1">
          <mxGeometry x="370" y="350" width="120" height="60" as="geometry" />
        </mxCell>
        <mxCell id="uh2voQJqc_HQXgUZuSZl-7" value="" style="rounded=1;whiteSpace=wrap;html=1;" vertex="1" parent="1">
          <mxGeometry x="530" y="350" width="120" height="60" as="geometry" />
        </mxCell>
      </root>
    </mxGraphModel>
  </diagram>
</mxfile>
